<svg id="Layer_1" data-name="Layer 1" xmlns="http://www.w3.org/2000/svg" xmlns:xlink="http://www.w3.org/1999/xlink" viewBox="0 0 298 330"><defs><style>.cls-1{fill:url(#linear-gradient);}.cls-2{fill:url(#linear-gradient-2);}.cls-3{fill:#07509d;}</style><linearGradient id="linear-gradient" x1="37.3" y1="115.66" x2="223.96" y2="113.95" gradientUnits="userSpaceOnUse"><stop offset="0" stop-color="#71767c"/><stop offset="0.45" stop-color="#e1e6ee"/><stop offset="0.5" stop-color="#d2d7de"/><stop offset="0.66" stop-color="#a8adb4"/><stop offset="0.8" stop-color="#8a8f95"/><stop offset="0.92" stop-color="#787d83"/><stop offset="1" stop-color="#71767c"/></linearGradient><linearGradient id="linear-gradient-2" x1="91.66" y1="144.63" x2="206.26" y2="144.63" gradientUnits="userSpaceOnUse"><stop offset="0" stop-color="#283371"/><stop offset="0.22" stop-color="#197abf"/><stop offset="1" stop-color="#2b2b6c"/></linearGradient></defs><path class="cls-1" d="M255.68,122.42a106.68,106.68,0,1,0-213.36,0,105.84,105.84,0,0,0,24.22,67.7h0L89.4,213l15.14-15.13h0l18-18A63.19,63.19,0,0,1,91.66,148.6l.1-.09a62.87,62.87,0,1,1,114.43.11l-.23-.22q.15.19.3.36a63,63,0,0,1-30.81,31.08l10.24,10.25h0L208.59,213l22.87-22.86,0,0h0A105.9,105.9,0,0,0,255.68,122.42Z"/><path class="cls-2" d="M206,148.4l-41.47-41.47a3,3,0,0,0-.26-.24L149,91.41l-19.91,19.92,0,0L91.81,148.62l0-.11-.1.09a63.19,63.19,0,0,0,30.89,31.24l-18,18L149,153.4l26.45,26.44a63,63,0,0,0,30.81-31.08Z"/><path class="cls-3" d="M140.36,244.61a34.75,34.75,0,1,0,34.75,34.75A34.74,34.74,0,0,0,140.36,244.61Zm0,57a22.27,22.27,0,1,1,22.27-22.27A22.27,22.27,0,0,1,140.36,301.63Z"/><path class="cls-3" d="M241.69,314.26l-.09-41.79L223,306.9h-6.6l-18.53-33.54v40.9H184.11V244.61h12.11l23.69,43.28,23.32-43.28h12l.18,69.65Z"/><path class="cls-3" d="M94,283.8a20.76,20.76,0,0,0-8.12-6.14,109.93,109.93,0,0,0-12.39-4.22,56.91,56.91,0,0,1-10.82-3.82q-3.51-1.85-3.36-5.29a6.45,6.45,0,0,1,3.38-5.42c2.08-1.27,5.21-1.82,9.38-1.67H96.7V244.75l-24.47,0h0a38.44,38.44,0,0,0-14.89,2.08,21.34,21.34,0,0,0-9.88,7.09,18.69,18.69,0,0,0-3.65,10.44q-.31,6.71,3,10.9a20.39,20.39,0,0,0,8.11,6.23,109.1,109.1,0,0,0,12.39,4.23q4.93,1.38,7.81,2.47A14.28,14.28,0,0,1,79.8,291,5,5,0,0,1,81.48,295a5.92,5.92,0,0,1-3.4,5.07c-1.86,1-4.56,1.56-8.07,1.56h0l-26.29,0v12.48h26A37.29,37.29,0,0,0,83.29,312a21.57,21.57,0,0,0,10-7.07A18.38,18.38,0,0,0,97,294.6Q97.27,287.9,94,283.8Z"/></svg>